<?xml version="1.0" encoding="utf-8"?>
<!-- Generator: Adobe Illustrator 24.2.1, SVG Export Plug-In . SVG Version: 6.00 Build 0)  -->
<svg version="1.1" id="Layer_1" xmlns="http://www.w3.org/2000/svg" xmlns:xlink="http://www.w3.org/1999/xlink" x="0px" y="0px"
	 viewBox="0 0 813.5 132.1" enable-background="new 0 0 813.5 132.1" xml:space="preserve">
<polygon fill="#F36B21" points="26.5,99.4 0,4.3 15.4,4.3 36.3,84.5 58.7,4.3 75.5,4.3 97.6,84.5 118.7,4.3 133,4.3 106.6,99.4 
	88.9,99.4 66.7,19 44.3,99.4 "/>
<path fill="#F36B21" d="M180.7,99.4l-0.4-11.3c-4.4,8-12.1,12.8-22.4,12.8c-12.8,0-23.7-6.3-23.7-21.1c0-18.5,16.7-24.2,37.6-24.2
	c1.9,0,5.8,0,8,0.1v-3c0-10.4-5-16.1-16.2-16.1c-7.3,0-14.5,1.7-20.9,5.7l-0.9-11c6.7-2.7,15.8-4.7,23.1-4.7
	c18.4,0,28.9,7.8,28.9,27.1v29.8c0,6.1,0.3,10.8,0.9,15.8H180.7z M176,64.5c-14.1,0-27.6,2-27.6,14.5c0,8.1,5.4,11.5,13,11.5
	c13,0,18.5-10.3,18.5-22.2v-3.8H176z"/>
<path fill="#F36B21" d="M206.8,99.4V44.5c0-5.6-0.1-10.8-0.7-16.4h13.4l0.4,13.7c3-7.6,10.1-15.1,19.4-15.1c2.1,0,3.8,0,6,0.6
	l-0.7,13.5c-1.9-0.7-3.7-0.9-5.8-0.9c-14.1,0-17.7,14.5-17.7,25.5v33.9H206.8z"/>
<path fill="#F36B21" d="M254.1,99.4V44.5c0-5.6-0.1-10.8-0.7-16.4h13.4l0.4,13.7c3-7.6,10.1-15.1,19.4-15.1c2.1,0,3.8,0,6,0.6
	l-0.7,13.5c-1.9-0.7-3.7-0.9-5.8-0.9c-14.1,0-17.7,14.5-17.7,25.5v33.9H254.1z"/>
<path fill="#F36B21" d="M340.9,99.4l-0.4-11.3c-4.4,8-12.1,12.8-22.4,12.8c-12.8,0-23.7-6.3-23.7-21.1c0-18.5,16.7-24.2,37.6-24.2
	c1.9,0,5.8,0,8,0.1v-3c0-10.4-5-16.1-16.2-16.1c-7.3,0-14.5,1.7-20.9,5.7l-0.9-11c6.7-2.7,15.8-4.7,23.1-4.7
	c18.4,0,28.9,7.8,28.9,27.1v29.8c0,6.1,0.3,10.8,0.9,15.8H340.9z M336.2,64.5c-14.1,0-27.6,2-27.6,14.5c0,8.1,5.4,11.5,13,11.5
	c13,0,18.5-10.3,18.5-22.2v-3.8H336.2z"/>
<path fill="#F36B21" d="M366.9,99.8V44.9c0-5.6-0.1-10.8-0.7-16.4h13.4l0.4,12.3c5-9.1,12.7-13.7,23.1-13.7
	c17.7,0,23.9,11.1,23.9,27.6v45h-14.4v-42c0-10-2-19.5-14.1-19.5c-13.3,0-17.4,11.5-17.4,22.8v38.8H366.9z"/>
<path fill="#F36B21" d="M477.4,98.9c-4.4,1.6-9.3,2.4-13.7,2.4c-15.2,0-18.1-10.5-18.1-24.4V38.8h-13.1V28.5h13.1V13.1L460,8.4v20.1
	h16v10.3h-16v39.9c0,6.1,1.6,11.4,8.8,11.4c2.7,0,5.3-0.6,7.8-1.7L477.4,98.9z"/>
<path fill="#F36B21" d="M486.1,120.1c2.4,0.7,4.7,1,7,1c7.3,0,10.3-4.8,13.3-14.4l1.4-4.4l-25.5-73.8h15.5l17.4,58.6l17.1-58.6h14.5
	l-27.2,80.8c-3.8,11-9,22.8-23.9,22.8c-3.7,0-7.1-0.3-10.4-1L486.1,120.1z"/>
<polygon fill="#FFFFFF" points="573.5,99.8 551.9,28.5 566.8,28.5 583.2,87.6 599.9,28.5 617,28.5 633.7,87.6 649.9,28.5 
	663.5,28.5 642.2,99.8 624.6,99.8 608,40.5 591.2,99.8 "/>
<path fill="#FFFFFF" d="M672,0h14.3v13.8H672V0z M672,28.5h14.3v71.3H672V28.5z"/>
<path fill="#FFFFFF" d="M698,86.9c6.1,3,11.7,4.3,18.4,4.3c7.6,0,13.5-2.8,13.5-10.7c0-16.1-31.9-11.3-31.9-33.6
	c0-15.1,13.4-19.8,25.9-19.8c6.4,0,12,0.9,17.5,3l-0.9,10.4c-5.3-2.1-10.5-3.3-16-3.3c-6.3,0-12.8,1.6-12.8,9
	c0,13.7,32.2,9.3,32.2,33.5c0,15.5-14.1,21.7-27.2,21.7c-7,0-12.7-0.7-19.7-3L698,86.9z"/>
<path fill="#FFFFFF" d="M765.8,67.3c0,13.1,8.1,24.1,23.8,24.1c6.4,0,13.5-1.4,19.2-4.4l0.9,10.5c-6.7,2.7-14.2,3.8-22.1,3.8
	c-24.1,0-36.5-15.2-36.5-37.5c0-19.5,12.1-36.8,32.6-36.8c22.4,0,29.8,15.8,29.8,35.9v4.3H765.8z M799.8,58.4
	c0-10.8-3.1-21.5-16-21.5c-12.1,0-17.8,11.3-18.2,21.5H799.8z"/>
<rect x="-179.1" y="-192.3" fill="none" width="3.4" height="20.3"/>
</svg>
